# xmcd CD database file
#
# Track frame offsets:
#	150
#	25753
#	38882
#	51504
#	78038
#	97854
#	113604
#	131858
#	167511
#	198086
#	219875
#
# Disc length: 3193 seconds
#
# Revision: 0
# Processed by: cddbd v1.4PL0 Copyright (c) Steve Scherf et al.
# Submitted via: CDex 1.51
#
DISCID=810c770b
DTITLE=Medwyn Goodall -  Return To Eden (Trilogy  Pt2)
DYEAR=1994
DGENRE=New Age
TTITLE0=Medwyn Goodall - Return To Eden (Trilogy  Pt2) - 01 - Blossoms For Your Room
TTITLE1=Medwyn Goodall - Return To Eden (Trilogy  Pt2) - 02 - Refelctions
TTITLE2=Medwyn Goodall - Return To Eden (Trilogy  Pt2) - 03 - Fairyland
TTITLE3=Medwyn Goodall - Return To Eden (Trilogy  Pt2) - 04 - Fragances From Paradise
TTITLE4=Medwyn Goodall - Return To Eden (Trilogy  Pt2) - 05 - The Last River
TTITLE5=Medwyn Goodall - Return To Eden (Trilogy  Pt2) - 06 - Early Morning
TTITLE6=Medwyn Goodall - Return To Eden (Trilogy  Pt2) - 07 - Day Of Innocence
TTITLE7=Medwyn Goodall - Return To Eden (Trilogy  Pt2) - 08 - Gold Dust
TTITLE8=Medwyn Goodall - Return To Eden (Trilogy  Pt2) - 09 - Still Waters
TTITLE9=Medwyn Goodall - Return To Eden (Trilogy  Pt2) - 10 - The Gift
TTITLE10=Medwyn Goodall - Return To Eden (Trilogy  Pt2) - 11 - The Last River
EXTD=YEAR: 1994
EXTT0=
EXTT1=
EXTT2=
EXTT3=
EXTT4=
EXTT5=
EXTT6=
EXTT7=
EXTT8=
EXTT9=
EXTT10=
PLAYORDER=
